<svg width="1024" height="1024" viewBox="0 0 1024 1024" fill="none" xmlns="http://www.w3.org/2000/svg">
<rect width="1024" height="1024" fill="white"/>
<path d="M887 512L512 887L361.995 736.995L411.995 686.995L512 787L787 512L686.995 411.995L736.995 361.995L887 512ZM662.005 287.005L612.005 337.005L512 237L237 512L337.005 612.005L287.005 662.005L137 512L512 137L662.005 287.005Z" fill="black"/>
<path d="M686.99 511.999L511.997 686.991L337.007 511.999L511.997 337.009L686.99 511.999ZM437.01 511.999L512 586.991V437.008L437.01 511.999Z" fill="black"/>
<path d="M511.998 686.991L686.99 511.999L511.998 337.009V686.991Z" fill="#0069B4"/>
</svg>
