<svg width="995" height="168" viewBox="0 0 995 168" fill="none" xmlns="http://www.w3.org/2000/svg">
<g clip-path="url(#clip0_240_565)">
<path d="M217.94 130.536C212.99 130.536 208.596 130.024 204.756 129C200.916 127.891 197.588 126.397 194.772 124.52C191.956 122.557 189.652 120.424 187.86 118.12C186.068 115.731 184.745 113.213 183.892 110.568L194.26 106.984C195.54 110.739 198.1 114.024 201.94 116.84C205.865 119.571 210.644 120.936 216.276 120.936C223.188 120.936 228.606 119.571 232.532 116.84C236.457 114.109 238.42 110.483 238.42 105.96C238.42 101.779 236.67 98.408 233.172 95.848C229.673 93.2027 225.065 91.1547 219.348 89.704L209.492 87.144C205.481 86.12 201.769 84.6267 198.356 82.664C195.028 80.616 192.34 78.056 190.292 74.984C188.329 71.8267 187.348 68.072 187.348 63.72C187.348 55.6133 189.95 49.2987 195.156 44.776C200.446 40.168 208.041 37.864 217.94 37.864C223.828 37.864 228.905 38.8453 233.172 40.808C237.438 42.6853 240.894 45.1173 243.54 48.104C246.27 51.0053 248.19 54.1627 249.3 57.576L239.06 61.16C237.438 56.8933 234.708 53.5653 230.868 51.176C227.028 48.7013 222.377 47.464 216.916 47.464C211.198 47.464 206.633 48.872 203.22 51.688C199.892 54.4187 198.228 58.1733 198.228 62.952C198.228 67.048 199.55 70.2053 202.196 72.424C204.841 74.5573 208.297 76.136 212.564 77.16L222.42 79.592C231.124 81.64 237.78 85.0533 242.388 89.832C247.081 94.5253 249.428 99.6027 249.428 105.064C249.428 109.757 248.233 114.067 245.844 117.992C243.454 121.832 239.913 124.904 235.22 127.208C230.612 129.427 224.852 130.536 217.94 130.536ZM307.957 154.6V76.904L308.469 65H318.197V154.6H307.957ZM286.325 130.536C280.607 130.536 275.573 129.128 271.221 126.312C266.869 123.496 263.455 119.571 260.981 114.536C258.591 109.416 257.397 103.571 257.397 97C257.397 90.344 258.591 84.4987 260.981 79.464C263.455 74.4293 266.869 70.504 271.221 67.688C275.573 64.872 280.607 63.464 286.325 63.464C291.701 63.464 296.394 64.872 300.405 67.688C304.501 70.504 307.658 74.4293 309.877 79.464C312.095 84.4987 313.205 90.344 313.205 97C313.205 103.571 312.095 109.416 309.877 114.536C307.658 119.571 304.501 123.496 300.405 126.312C296.394 129.128 291.701 130.536 286.325 130.536ZM288.629 121.192C292.383 121.192 295.711 120.168 298.613 118.12C301.514 116.072 303.775 113.213 305.397 109.544C307.103 105.875 307.957 101.693 307.957 97C307.957 92.3067 307.103 88.1253 305.397 84.456C303.775 80.7867 301.514 77.928 298.613 75.88C295.711 73.832 292.341 72.808 288.501 72.808C284.49 72.808 280.906 73.832 277.749 75.88C274.677 77.928 272.245 80.7867 270.453 84.456C268.661 88.1253 267.765 92.3067 267.765 97C267.765 101.693 268.661 105.875 270.453 109.544C272.245 113.213 274.719 116.072 277.877 118.12C281.034 120.168 284.618 121.192 288.629 121.192ZM375.173 129L374.533 117.224V65H384.773V129H375.173ZM329.605 97.768V65H339.845V97.768H329.605ZM339.845 97.768C339.845 104.083 340.57 108.904 342.021 112.232C343.471 115.56 345.477 117.864 348.037 119.144C350.682 120.339 353.626 120.936 356.869 120.936C362.415 120.936 366.725 118.931 369.797 114.92C372.954 110.909 374.533 105.32 374.533 98.152H379.525C379.525 104.893 378.543 110.696 376.581 115.56C374.618 120.424 371.759 124.136 368.005 126.696C364.335 129.256 359.813 130.536 354.437 130.536C349.487 130.536 345.135 129.555 341.381 127.592C337.626 125.544 334.725 122.344 332.677 117.992C330.629 113.555 329.605 107.837 329.605 100.84V97.768H339.845ZM438.228 129L437.716 118.504V95.208C437.716 90.1733 437.161 86.0347 436.052 82.792C434.942 79.464 433.193 76.9467 430.804 75.24C428.414 73.5333 425.3 72.68 421.46 72.68C417.961 72.68 414.932 73.4053 412.372 74.856C409.897 76.2213 407.849 78.44 406.228 81.512L397.012 77.928C398.633 74.9413 400.596 72.3813 402.9 70.248C405.204 68.0293 407.892 66.3653 410.964 65.256C414.036 64.0613 417.534 63.464 421.46 63.464C427.433 63.464 432.34 64.6587 436.18 67.048C440.105 69.352 443.049 72.808 445.012 77.416C446.974 81.9387 447.913 87.5707 447.828 94.312L447.7 129H438.228ZM419.028 130.536C411.518 130.536 405.63 128.829 401.364 125.416C397.182 121.917 395.092 117.096 395.092 110.952C395.092 104.467 397.225 99.5173 401.492 96.104C405.844 92.6053 411.902 90.856 419.668 90.856H437.972V99.432H421.972C415.998 99.432 411.732 100.413 409.172 102.376C406.697 104.339 405.46 107.155 405.46 110.824C405.46 114.152 406.697 116.797 409.172 118.76C411.646 120.637 415.102 121.576 419.54 121.576C423.209 121.576 426.409 120.808 429.14 119.272C431.87 117.651 433.961 115.389 435.412 112.488C436.948 109.501 437.716 106.003 437.716 101.992H442.068C442.068 110.696 440.105 117.651 436.18 122.856C432.254 127.976 426.537 130.536 419.028 130.536ZM465.846 94.312C465.846 87.4 467.168 81.8107 469.814 77.544C472.459 73.192 475.83 69.992 479.926 67.944C484.107 65.8107 488.502 64.744 493.11 64.744V74.344C489.355 74.344 485.728 74.984 482.23 76.264C478.816 77.4587 476 79.464 473.782 82.28C471.563 85.096 470.454 88.936 470.454 93.8L465.846 94.312ZM460.214 129V65H470.454V129H460.214ZM527.656 130.536C521.426 130.536 515.922 129.128 511.144 126.312C506.365 123.411 502.61 119.443 499.88 114.408C497.234 109.373 495.912 103.571 495.912 97C495.912 90.4293 497.234 84.6267 499.88 79.592C502.61 74.5573 506.322 70.632 511.016 67.816C515.794 64.9147 521.256 63.464 527.4 63.464C533.373 63.464 538.536 64.9573 542.888 67.944C547.24 70.8453 550.61 74.9413 553 80.232C555.389 85.5227 556.584 91.752 556.584 98.92H503.72L506.28 96.744C506.28 101.864 507.176 106.259 508.968 109.928C510.845 113.597 513.448 116.413 516.776 118.376C520.104 120.253 523.901 121.192 528.168 121.192C532.69 121.192 536.488 120.125 539.56 117.992C542.717 115.859 545.149 113.043 546.856 109.544L555.688 114.024C554.066 117.352 551.89 120.253 549.16 122.728C546.514 125.203 543.357 127.123 539.688 128.488C536.104 129.853 532.093 130.536 527.656 130.536ZM506.92 92.392L504.232 90.344H548.392L545.704 92.52C545.704 88.424 544.893 84.8827 543.272 81.896C541.65 78.9093 539.474 76.6053 536.744 74.984C534.013 73.3627 530.856 72.552 527.272 72.552C523.773 72.552 520.445 73.3627 517.288 74.984C514.216 76.6053 511.698 78.9093 509.736 81.896C507.858 84.7973 506.92 88.296 506.92 92.392ZM565.403 129V39.4H596.763C602.907 39.4 608.325 40.3387 613.019 42.216C617.712 44.0933 621.381 46.952 624.027 50.792C626.672 54.632 627.995 59.496 627.995 65.384C627.995 68.5413 627.141 71.528 625.435 74.344C623.813 77.0747 621.552 79.5493 618.651 81.768C622.747 83.9013 625.861 86.7173 627.995 90.216C630.213 93.6293 631.323 97.8533 631.323 102.888C631.323 108.52 630.043 113.299 627.483 117.224C624.923 121.064 621.381 124.008 616.859 126.056C612.336 128.019 607.045 129 600.987 129H565.403ZM585.499 110.824H598.683C602.181 110.824 604.955 109.928 607.003 108.136C609.051 106.259 610.075 103.869 610.075 100.968C610.075 97.896 609.008 95.5067 606.875 93.8C604.741 92.008 601.797 91.112 598.043 91.112H585.499V110.824ZM585.499 74.6H596.123C599.365 74.6 601.968 73.7893 603.931 72.168C605.893 70.4613 606.875 68.1147 606.875 65.128C606.875 62.056 605.808 59.7093 603.675 58.088C601.627 56.3813 598.853 55.528 595.355 55.528H585.499V74.6ZM652.607 95.848C652.607 88.936 653.972 83.176 656.703 78.568C659.519 73.96 663.017 70.504 667.199 68.2C671.465 65.896 675.903 64.744 680.511 64.744V84.2C676.585 84.2 672.873 84.6267 669.375 85.48C665.961 86.3333 663.188 87.656 661.055 89.448C658.921 91.1547 657.855 93.3733 657.855 96.104L652.607 95.848ZM637.887 129V65H657.855V129H637.887ZM723.063 129L722.423 115.176V97.128C722.423 93.7147 722.124 90.728 721.527 88.168C721.015 85.608 719.948 83.6453 718.327 82.28C716.791 80.8293 714.529 80.104 711.543 80.104C709.153 80.104 707.063 80.6587 705.271 81.768C703.479 82.8773 701.943 84.3707 700.663 86.248L683.127 80.488C684.663 77.3307 686.668 74.472 689.143 71.912C691.703 69.352 694.817 67.304 698.487 65.768C702.156 64.232 706.423 63.464 711.287 63.464C717.943 63.464 723.575 64.7013 728.183 67.176C732.791 69.6507 736.247 73.1067 738.551 77.544C740.855 81.9813 742.007 87.2293 742.007 93.288L741.751 129H723.063ZM705.527 130.536C698.017 130.536 692.172 128.872 687.991 125.544C683.809 122.131 681.719 117.267 681.719 110.952C681.719 104.211 683.895 99.176 688.247 95.848C692.599 92.52 698.7 90.856 706.551 90.856H724.087V103.784H713.975C709.793 103.784 706.764 104.381 704.887 105.576C703.009 106.685 702.071 108.307 702.071 110.44C702.071 111.976 702.753 113.213 704.119 114.152C705.569 115.005 707.532 115.432 710.007 115.432C712.481 115.432 714.615 114.92 716.407 113.896C718.284 112.787 719.735 111.336 720.759 109.544C721.868 107.752 722.423 105.832 722.423 103.784H727.543C727.543 112.232 725.708 118.803 722.039 123.496C718.455 128.189 712.951 130.536 705.527 130.536ZM782.204 130.536C775.377 130.536 769.276 129.128 763.9 126.312C758.609 123.411 754.47 119.443 751.484 114.408C748.497 109.288 747.004 103.485 747.004 97C747.004 90.4293 748.497 84.6267 751.484 79.592C754.47 74.5573 758.566 70.632 763.772 67.816C769.062 64.9147 775.121 63.464 781.948 63.464C788.518 63.464 794.534 65.128 799.996 68.456C805.457 71.784 809.382 76.6053 811.772 82.92L792.828 89.32C791.889 87.272 790.31 85.608 788.092 84.328C785.958 82.9627 783.569 82.28 780.924 82.28C778.278 82.28 775.932 82.92 773.884 84.2C771.921 85.3947 770.342 87.1013 769.148 89.32C768.038 91.5387 767.484 94.0987 767.484 97C767.484 99.9013 768.038 102.461 769.148 104.68C770.342 106.813 771.964 108.52 774.012 109.8C776.145 111.08 778.534 111.72 781.18 111.72C783.825 111.72 786.214 111.037 788.348 109.672C790.481 108.307 792.06 106.515 793.084 104.296L812.028 110.696C809.553 117.096 805.585 122.003 800.124 125.416C794.748 128.829 788.774 130.536 782.204 130.536ZM835.561 114.792L823.785 100.968L855.913 65H879.337L835.561 114.792ZM816.617 129V39.4H836.585V129H816.617ZM857.833 129L837.993 100.712L851.049 87.016L881.001 129H857.833ZM911.122 130.536C904.466 130.536 898.578 129.128 893.458 126.312C888.338 123.496 884.327 119.571 881.426 114.536C878.524 109.501 877.074 103.656 877.074 97C877.074 90.344 878.524 84.4987 881.426 79.464C884.327 74.4293 888.338 70.504 893.458 67.688C898.663 64.872 904.636 63.464 911.378 63.464C917.436 63.464 922.898 64.9147 927.762 67.816C932.626 70.7173 936.466 75.0693 939.282 80.872C942.183 86.5893 943.634 93.672 943.634 102.12H895.506L897.682 99.688C897.682 102.589 898.279 105.149 899.474 107.368C900.668 109.587 902.332 111.293 904.466 112.488C906.599 113.597 908.988 114.152 911.634 114.152C914.791 114.152 917.436 113.469 919.57 112.104C921.703 110.653 923.196 108.861 924.05 106.728L941.842 112.744C940.135 116.84 937.703 120.211 934.546 122.856C931.474 125.501 927.932 127.464 923.922 128.744C919.911 129.939 915.644 130.536 911.122 130.536ZM898.194 91.496L896.146 88.808H924.818L922.898 91.496C922.898 88.2533 922.258 85.736 920.978 83.944C919.698 82.0667 918.119 80.7013 916.242 79.848C914.45 78.9947 912.615 78.568 910.738 78.568C908.86 78.568 906.94 78.9947 904.978 79.848C903.1 80.7013 901.479 82.0667 900.114 83.944C898.834 85.736 898.194 88.2533 898.194 91.496ZM975.707 130.536C968.112 130.536 962.437 128.744 958.683 125.16C955.013 121.491 953.179 116.285 953.179 109.544V45.032H973.147V104.552C973.147 107.112 973.616 108.989 974.555 110.184C975.493 111.379 976.944 111.976 978.907 111.976C979.675 111.976 980.571 111.805 981.595 111.464C982.619 111.037 983.557 110.525 984.411 109.928L991.323 124.52C989.275 126.227 986.8 127.677 983.899 128.872C981.083 129.981 978.352 130.536 975.707 130.536ZM943.195 81.768V65H987.739V81.768H943.195Z" fill="white"/>
<path d="M168 84L84 168L50.3989 134.399L61.5989 123.199L84 145.6L145.6 84L123.199 61.5989L134.399 50.3989L168 84ZM117.601 33.6011L106.401 44.8011L84 22.4L22.4 84L44.8011 106.401L33.6011 117.601L0 84L84 0L117.601 33.6011Z" fill="white"/>
<path d="M123.198 83.9997L83.9995 123.198L44.8018 83.9997L83.9995 44.8019L123.198 83.9997ZM67.2023 83.9997L84.0001 100.798V67.2019L67.2023 83.9997Z" fill="white"/>
<path d="M83.9995 123.198L123.198 83.9997L83.9995 44.8019V123.198Z" fill="#0069B4"/>
</g>
<defs>
<clipPath id="clip0_240_565">
<rect width="995" height="168" fill="white"/>
</clipPath>
</defs>
</svg>
