<svg width="300" height="301" viewBox="0 0 300 301" fill="none" xmlns="http://www.w3.org/2000/svg">
<path d="M300 150.5L150 300.5L89.998 240.498L109.998 220.498L150 260.5L260 150.5L219.998 110.498L239.998 90.498L300 150.5ZM210.002 60.5019L190.002 80.5019L150 40.5L40 150.5L80.002 190.502L60.002 210.502L0 150.5L150 0.5L210.002 60.5019Z" fill="white"/>
<path d="M219.996 150.499L149.999 220.496L80.0029 150.499L149.999 80.5034L219.996 150.499ZM120.004 150.499L150 180.496V120.503L120.004 150.499Z" fill="white"/>
<path d="M149.999 220.496L219.996 150.499L149.999 80.5034V220.496Z" fill="#0069B4"/>
</svg>
