<svg width="1106" height="440" viewBox="0 0 1106 440" fill="none" xmlns="http://www.w3.org/2000/svg">
<g clip-path="url(#clip0_155_374)">
<path d="M1099.43 94.9131C1099.43 94.9131 1093.27 51.8501 1074.49 32.813C1050.44 7.91305 1023.74 7.91304 1011.42 6.44804C923.413 0.00304365 791.108 0.00305176 791.108 0.00305176H790.815C790.815 0.00305176 658.803 0.00304365 570.502 6.44804C558.181 7.91304 531.485 7.91305 507.43 32.813C488.655 51.854 482.494 94.9131 482.494 94.9131C482.494 94.9131 476.333 145.592 476.333 196.271V243.728C476.333 294.407 482.494 345.086 482.494 345.086C482.494 345.086 488.655 388.149 507.43 407.186C531.485 432.086 562.875 431.207 576.956 433.844C627.414 438.531 790.815 439.996 790.815 439.996C790.815 439.996 923.12 439.703 1011.13 433.551C1023.45 432.086 1050.15 432.086 1074.2 407.186C1092.98 388.145 1099.14 345.086 1099.14 345.086C1099.14 345.086 1105.3 294.407 1105.3 243.728V196.271C1105.89 145.592 1099.43 94.9131 1099.43 94.9131Z" fill="url(#paint0_linear_155_374)"/>
<path d="M527.975 112.131V70.902H663.299V112.131H617.533V356.149H573.542V112.131H527.975ZM768.497 145.666V356.149H729.442V333.069C722.209 341.617 714.68 348.127 706.855 352.598C699.03 357.069 691.434 359.305 684.067 359.305C674.993 359.305 668.154 356.182 663.551 349.935C658.948 343.688 656.648 334.318 656.651 321.825V145.667H695.907V307.227C695.907 312.227 696.729 315.844 698.373 318.077C700.017 320.31 702.68 321.428 706.362 321.431C709.255 321.431 712.905 319.952 717.31 316.993C721.91 313.853 726.001 310.028 729.442 305.649V145.667L768.497 145.666ZM840.16 316.104C842.764 319.085 845.868 321.59 849.333 323.504C852.229 325.001 855.443 325.779 858.703 325.773C863.436 325.773 866.921 324.294 869.158 321.335C871.395 318.376 872.513 313.543 872.512 306.835V198.139C872.512 191.038 871.131 185.646 868.369 181.963C865.607 178.28 861.596 176.439 856.336 176.44C853.48 176.463 850.672 177.174 848.149 178.511C845.124 180.153 842.418 182.324 840.16 184.922V316.104ZM800.509 356.149V70.903H840.159V162.632C844.788 156.735 850.474 151.75 856.927 147.932C862.366 144.711 868.557 142.976 874.878 142.902C887.24 142.902 896.676 147.406 903.186 156.415C909.696 165.424 912.951 178.542 912.951 195.769V312.549C912.951 327.541 909.893 339.015 903.778 346.972C897.663 354.929 888.817 358.908 877.242 358.911C870.162 359.037 863.156 357.446 856.825 354.275C850.841 351.184 845.285 346.418 840.156 339.975V356.149H800.509ZM977.117 223.192H1011.44V201.892C1011.44 193.081 1010.09 186.768 1007.4 182.955C1004.7 179.142 1000.39 177.235 994.477 177.234C988.296 177.234 983.858 179.141 981.162 182.955C978.466 186.769 977.118 193.082 977.118 201.893L977.117 223.192ZM936.678 296.772V202.282C936.678 184.002 942.201 169.108 953.248 157.601C964.295 146.094 978.564 140.34 996.055 140.34C1013.94 140.34 1027.68 145.666 1037.28 156.319C1046.88 166.972 1051.68 182.293 1051.68 202.282V255.938H977.117V295.588C977.117 306.635 978.399 314.295 980.964 318.569C983.529 322.843 987.901 324.98 994.082 324.98C1000.53 324.98 1005.03 323.172 1007.59 319.555C1010.16 315.938 1011.44 307.949 1011.44 295.588V280.988H1051.68V296.769C1051.68 318.337 1046.78 334.579 1036.98 345.494C1027.18 356.409 1012.55 361.868 993.096 361.87C975.605 361.87 961.83 356.084 951.769 344.511C941.708 332.938 936.678 317.025 936.678 296.772Z" fill="white"/>
<path d="M0 356.149V72.3149H114.042V113.339H43.772V187.733H94.415V228.757H43.772V356.149H0ZM229.555 146.709V356.149H190.69V333.183C183.49 341.689 175.998 348.167 168.215 352.616C160.432 357.065 152.874 359.29 145.542 359.29C136.513 359.29 129.708 356.182 125.128 349.966C120.548 343.75 118.258 334.426 118.258 321.995V146.709H157.32V307.469C157.32 312.442 158.138 316.042 159.774 318.269C161.41 320.496 164.06 321.609 167.724 321.606C170.603 321.606 174.234 320.134 178.618 317.189C183.195 314.064 187.265 310.257 190.689 305.899V146.709H229.555ZM263.016 356.149V72.3149H302.47V356.149H263.016ZM375.19 186.555V317.087C377.512 319.752 380.266 322.008 383.336 323.761C385.764 325.132 388.497 325.875 391.286 325.92C396.521 325.92 400.512 324.055 403.26 320.326C406.008 316.597 407.382 311.133 407.382 303.936V195.781C407.382 189.238 406.302 184.527 404.143 181.648C401.984 178.769 398.484 177.329 393.643 177.33C390.346 177.306 387.087 178.045 384.123 179.489C380.735 181.273 377.706 183.669 375.19 186.555ZM335.736 422.102V146.709H375.19V163.197C380.293 156.654 385.855 151.813 391.875 148.672C398.129 145.476 405.07 143.858 412.093 143.961C423.478 143.961 432.244 147.952 438.393 155.935C444.542 163.918 447.617 175.433 447.619 190.482V306.292C447.619 323.435 444.38 336.488 437.903 345.452C431.426 354.416 422.037 358.898 409.737 358.897C403.447 358.823 397.287 357.097 391.874 353.892C385.454 350.094 379.796 345.135 375.19 339.268V422.102H335.736Z" fill="black"/>
</g>
<defs>
<linearGradient id="paint0_linear_155_374" x1="707.177" y1="86.6817" x2="707.177" y2="353.317" gradientUnits="userSpaceOnUse">
<stop stop-color="#E42526"/>
<stop offset="0.729" stop-color="#DE2426"/>
<stop offset="1" stop-color="#BF1F26"/>
</linearGradient>
<clipPath id="clip0_155_374">
<rect width="1105.34" height="440" fill="white"/>
</clipPath>
</defs>
</svg>
